<svg width="33" height="32" viewBox="0 0 33 32" fill="none" xmlns="http://www.w3.org/2000/svg">
<g clip-path="url(#clip0_2_179)">
<path d="M32.0422 16.0211C32.0422 7.17288 24.8693 0 16.0211 0C7.17288 0 0 7.17288 0 16.0211C0 24.0175 5.85865 30.6456 13.5178 31.8475V20.6522H9.44993V16.0211H13.5178V12.4914C13.5178 8.47615 15.9097 6.25823 19.5692 6.25823C21.3221 6.25823 23.1555 6.57115 23.1555 6.57115V10.5138H21.1353C19.1452 10.5138 18.5244 11.7489 18.5244 13.0159V16.0211H22.9677L22.2574 20.6522H18.5244V31.8475C26.1835 30.6456 32.0422 24.0179 32.0422 16.0211Z" fill="white"/>
</g>
<defs>
<clipPath id="clip0_2_179">
<rect width="32.0422" height="31.8475" fill="white"/>
</clipPath>
</defs>
</svg>
