<svg width="33" height="33" viewBox="0 0 33 33" fill="none" xmlns="http://www.w3.org/2000/svg">
<g clip-path="url(#clip0_2_174)">
<path d="M16.1423 2.88634C20.4204 2.88634 20.9266 2.90287 22.6164 2.97982C24.1783 3.05105 25.0266 3.31179 25.5914 3.5312C26.3393 3.82183 26.8728 4.16907 27.4337 4.72935C27.9947 5.29026 28.3419 5.82383 28.6319 6.57172C28.8513 7.13645 29.112 7.98482 29.1833 9.54673C29.2602 11.2358 29.2768 11.7427 29.2768 16.0208C29.2768 20.2989 29.2602 20.8051 29.1833 22.4949C29.112 24.0568 28.8513 24.9051 28.6319 25.4699C28.3413 26.2178 27.994 26.7513 27.4337 27.3122C26.8728 27.8732 26.3393 28.2204 25.5914 28.5104C25.0266 28.7298 24.1783 28.9905 22.6164 29.0618C20.9272 29.1387 20.4204 29.1553 16.1423 29.1553C11.8642 29.1553 11.3573 29.1387 9.66823 29.0618C8.10632 28.9905 7.25795 28.7298 6.69322 28.5104C5.94533 28.2198 5.41176 27.8725 4.85084 27.3122C4.28993 26.7513 3.94269 26.2178 3.6527 25.4699C3.43329 24.9051 3.17255 24.0568 3.10132 22.4949C3.02437 20.8057 3.00783 20.2989 3.00783 16.0208C3.00783 11.7427 3.02437 11.2365 3.10132 9.54673C3.17255 7.98482 3.43329 7.13645 3.6527 6.57172C3.94333 5.82383 4.29056 5.29026 4.85084 4.72935C5.41112 4.16843 5.94533 3.8212 6.69322 3.5312C7.25795 3.31179 8.10632 3.05105 9.66823 2.97982C11.3573 2.90287 11.8642 2.88634 16.1423 2.88634ZM16.1423 -0.000279569C11.7911 -0.000279569 11.2454 0.0181632 9.53659 0.0963862C7.83158 0.173973 6.66651 0.444892 5.6477 0.841094C4.59392 1.25065 3.70039 1.79821 2.81005 2.68919C1.91907 3.58017 1.37151 4.47306 0.961954 5.52684C0.566387 6.54565 0.295469 7.71009 0.217882 9.41509C0.139659 11.1239 0.121216 11.6696 0.121216 16.0208C0.121216 20.372 0.139659 20.9177 0.217882 22.6265C0.295469 24.3315 0.566387 25.4966 0.96259 26.5154C1.37215 27.5692 1.91971 28.4627 2.81069 29.353C3.70166 30.244 4.59455 30.7916 5.64834 31.2011C6.66714 31.5973 7.83222 31.8683 9.53722 31.9458C11.246 32.0241 11.7917 32.0425 16.1429 32.0425C20.4942 32.0425 21.0398 32.0241 22.7486 31.9458C24.4536 31.8683 25.6187 31.5973 26.6375 31.2011C27.6913 30.7916 28.5848 30.244 29.4752 29.353C30.3662 28.4621 30.9137 27.5692 31.3233 26.5154C31.7195 25.4966 31.9904 24.3315 32.068 22.6265C32.1462 20.9177 32.1646 20.372 32.1646 16.0208C32.1646 11.6696 32.1462 11.1239 32.068 9.41509C31.9904 7.71009 31.7195 6.54501 31.3233 5.5262C30.9137 4.47242 30.3662 3.5789 29.4752 2.68855C28.5842 1.79758 27.6913 1.25002 26.6375 0.840458C25.6187 0.444256 24.4536 0.173337 22.7486 0.0957502C21.0398 0.0175273 20.4942 -0.000915527 16.1429 -0.000915527L16.1423 -0.000279569Z" fill="white"/>
<path d="M16.1423 7.79437C11.5984 7.79437 7.91553 11.4778 7.91553 16.0211C7.91553 20.5644 11.599 24.2479 16.1423 24.2479C20.6856 24.2479 24.3691 20.5644 24.3691 16.0211C24.3691 11.4778 20.6856 7.79437 16.1423 7.79437ZM16.1423 21.3619C13.1927 21.3619 10.8021 18.9707 10.8021 16.0218C10.8021 13.0728 13.1934 10.6816 16.1423 10.6816C19.0912 10.6816 21.4824 13.0728 21.4824 16.0218C21.4824 18.9707 19.0912 21.3619 16.1423 21.3619Z" fill="white"/>
<path d="M24.6947 9.39121C25.7565 9.39121 26.6172 8.53048 26.6172 7.46871C26.6172 6.40694 25.7565 5.5462 24.6947 5.5462C23.633 5.5462 22.7722 6.40694 22.7722 7.46871C22.7722 8.53048 23.633 9.39121 24.6947 9.39121Z" fill="white"/>
</g>
<defs>
<clipPath id="clip0_2_174">
<rect width="32.0422" height="32.0422" fill="white" transform="translate(0.121216)"/>
</clipPath>
</defs>
</svg>
