<svg width="40" height="40" viewBox="0 0 40 40" fill="none" xmlns="http://www.w3.org/2000/svg">
<g clip-path="url(#clip0_1_31)">
<path d="M20 3.6034C25.3406 3.6034 25.9725 3.62404 28.0819 3.72011C30.0318 3.80902 31.0908 4.13452 31.7958 4.40842C32.7294 4.77123 33.3955 5.2047 34.0957 5.90413C34.796 6.60435 35.2294 7.27044 35.5915 8.20407C35.8654 8.90905 36.1909 9.96812 36.2798 11.9179C36.3758 14.0265 36.3965 14.6593 36.3965 19.9999C36.3965 25.3405 36.3758 25.9724 36.2798 28.0818C36.1909 30.0316 35.8654 31.0907 35.5915 31.7957C35.2286 32.7293 34.7952 33.3954 34.0957 34.0956C33.3955 34.7958 32.7294 35.2293 31.7958 35.5913C31.0908 35.8652 30.0318 36.1907 28.0819 36.2796C25.9733 36.3757 25.3406 36.3963 20 36.3963C14.6594 36.3963 14.0267 36.3757 11.9181 36.2796C9.96824 36.1907 8.90918 35.8652 8.20419 35.5913C7.27056 35.2285 6.60448 34.795 5.90426 34.0956C5.20403 33.3954 4.77056 32.7293 4.40854 31.7957C4.13465 31.0907 3.80915 30.0316 3.72023 28.0818C3.62417 25.9732 3.60352 25.3405 3.60352 19.9999C3.60352 14.6593 3.62417 14.0273 3.72023 11.9179C3.80915 9.96812 4.13465 8.90905 4.40854 8.20407C4.77136 7.27044 5.20483 6.60435 5.90426 5.90413C6.60368 5.20391 7.27056 4.77044 8.20419 4.40842C8.90918 4.13452 9.96824 3.80902 11.9181 3.72011C14.0267 3.62404 14.6594 3.6034 20 3.6034ZM20 -0.000121625C14.5681 -0.000121625 13.8869 0.0229015 11.7537 0.120552C9.62528 0.217408 8.17085 0.55561 6.89902 1.05021C5.58352 1.56148 4.46808 2.24503 3.35662 3.35729C2.24436 4.46955 1.56081 5.58419 1.04954 6.89969C0.555732 8.17152 0.217529 9.62515 0.120673 11.7536C0.0230232 13.8868 0 14.568 0 19.9999C0 25.4318 0.0230232 26.1129 0.120673 28.2461C0.217529 30.3746 0.555732 31.829 1.05033 33.1009C1.56161 34.4164 2.24516 35.5318 3.35741 36.6432C4.46967 37.7555 5.58431 38.4391 6.89981 38.9503C8.17164 39.4449 9.62607 39.7831 11.7545 39.88C13.8877 39.9776 14.5689 40.0007 20.0008 40.0007C25.4327 40.0007 26.1138 39.9776 28.2471 39.88C30.3755 39.7831 31.8299 39.4449 33.1018 38.9503C34.4173 38.4391 35.5327 37.7555 36.6442 36.6432C37.7564 35.531 38.44 34.4164 38.9513 33.1009C39.4459 31.829 39.7841 30.3746 39.8809 28.2461C39.9786 26.1129 40.0016 25.4318 40.0016 19.9999C40.0016 14.568 39.9786 13.8868 39.8809 11.7536C39.7841 9.62515 39.4459 8.17072 38.9513 6.89889C38.44 5.5834 37.7564 4.46796 36.6442 3.3565C35.5319 2.24424 34.4173 1.56069 33.1018 1.04942C31.8299 0.554816 30.3755 0.216614 28.2471 0.119758C26.1138 0.0221076 25.4327 -0.000915527 20.0008 -0.000915527L20 -0.000121625Z" fill="white"/>
<path d="M20 9.7301C14.3276 9.7301 9.7301 14.3284 9.7301 20C9.7301 25.6717 14.3284 30.27 20 30.27C25.6717 30.27 30.27 25.6717 30.27 20C30.27 14.3284 25.6717 9.7301 20 9.7301ZM20 26.6672C16.3179 26.6672 13.3336 23.6822 13.3336 20.0008C13.3336 16.3195 16.3187 13.3344 20 13.3344C23.6814 13.3344 26.6664 16.3195 26.6664 20.0008C26.6664 23.6822 23.6814 26.6672 20 26.6672Z" fill="white"/>
<path d="M30.6764 11.7236C32.0019 11.7236 33.0764 10.6491 33.0764 9.32361C33.0764 7.99815 32.0019 6.92365 30.6764 6.92365C29.3509 6.92365 28.2764 7.99815 28.2764 9.32361C28.2764 10.6491 29.3509 11.7236 30.6764 11.7236Z" fill="white"/>
</g>
<defs>
<clipPath id="clip0_1_31">
<rect width="40" height="40" fill="white"/>
</clipPath>
</defs>
</svg>
