<svg width="57" height="40" viewBox="0 0 57 40" fill="none" xmlns="http://www.w3.org/2000/svg">
<g clip-path="url(#clip0_1_37)">
<path d="M55.8129 6.24647C55.156 3.78645 53.2275 1.85325 50.7735 1.19473C46.3254 0 28.5 0 28.5 0C28.5 0 10.6746 0 6.23115 1.19473C3.77716 1.85325 1.8487 3.78645 1.1918 6.24647C0 10.7008 0 20 0 20C0 20 0 29.2992 1.1918 33.7535C1.8487 36.2135 3.77716 38.1468 6.23115 38.8053C10.6746 40 28.5 40 28.5 40C28.5 40 46.3254 40 50.7688 38.8053C53.2228 38.1468 55.1513 36.2135 55.8082 33.7535C57 29.2992 57 20 57 20C57 20 57 10.7008 55.8082 6.24647H55.8129ZM22.7991 28.5701V11.4299L37.6074 20L22.7991 28.5701Z" fill="white"/>
</g>
<defs>
<clipPath id="clip0_1_37">
<rect width="57" height="40" fill="white"/>
</clipPath>
</defs>
</svg>
