<svg width="46" height="33" viewBox="0 0 46 33" fill="none" xmlns="http://www.w3.org/2000/svg">
<g clip-path="url(#clip0_2_164)">
<path d="M44.7091 5.04594C44.1829 3.07533 42.6381 1.52673 40.6723 0.99922C37.1091 0.0421753 22.83 0.0421753 22.83 0.0421753C22.83 0.0421753 8.55093 0.0421753 4.99149 0.99922C3.02571 1.52673 1.48091 3.07533 0.954697 5.04594C0 8.61413 0 16.0633 0 16.0633C0 16.0633 0 23.5124 0.954697 27.0806C1.48091 29.0512 3.02571 30.5998 4.99149 31.1273C8.55093 32.0843 22.83 32.0843 22.83 32.0843C22.83 32.0843 37.1091 32.0843 40.6686 31.1273C42.6344 30.5998 44.1792 29.0512 44.7054 27.0806C45.6601 23.5124 45.6601 16.0633 45.6601 16.0633C45.6601 16.0633 45.6601 8.61413 44.7054 5.04594H44.7091ZM18.2633 22.9284V9.19815L30.1256 16.0633L18.2633 22.9284Z" fill="white"/>
</g>
<defs>
<clipPath id="clip0_2_164">
<rect width="45.6601" height="32.0422" fill="white" transform="translate(0 0.0421753)"/>
</clipPath>
</defs>
</svg>
